<svg class="center-block img-responsive" xmlns="http://www.w3.org/2000/svg" data-name="Layer 1" viewBox="0 0 100 100" preserveAspectRatio="xMidYMin">
	<path d="M31,31H20a1,1,0,0,1,0-2H31A1,1,0,0,1,31,31Z"/>
	<path d="M80,31H40a1,1,0,0,1,0-2H80A1,1,0,0,1,80,31Z"/>
	<path d="M35.12,35a5,5,0,1,1,5-5A5,5,0,0,1,35.12,35Zm0-8a3,3,0,1,0,3,3A3,3,0,0,0,35.12,27Z"/>
	<path d="M61,51H20a1,1,0,0,1,0-2H61A1,1,0,0,1,61,51Z"/>
	<path d="M80,51H70a1,1,0,0,1,0-2H80A1,1,0,0,1,80,51Z"/>
	<path d="M65.12,55a5,5,0,1,1,5-5A5,5,0,0,1,65.12,55Zm0-8a3,3,0,1,0,3,3A3,3,0,0,0,65.12,47Z"/>
	<path d="M41,71H20a1,1,0,0,1,0-2H41A1,1,0,0,1,41,71Z"/>
	<path d="M80,71H50a1,1,0,0,1,0-2H80A1,1,0,0,1,80,71Z"/>
	<path d="M45.12,75a5,5,0,1,1,5-5A5,5,0,0,1,45.12,75Zm0-8a3,3,0,1,0,3,3A3,3,0,0,0,45.12,67Z"/>
</svg>